<svg width="120" height="120" viewBox="0 0 120 120" fill="none" xmlns="http://www.w3.org/2000/svg">
  <defs>
    <!-- Glass gradient -->
    <linearGradient id="glassGradient" x1="0%" y1="0%" x2="100%" y2="100%">
      <stop offset="0%" style="stop-color:#ffffff;stop-opacity:0.4" />
      <stop offset="30%" style="stop-color:#f0f9ff;stop-opacity:0.3" />
      <stop offset="70%" style="stop-color:#0ea5e9;stop-opacity:0.2" />
      <stop offset="100%" style="stop-color:#0284c7;stop-opacity:0.4" />
    </linearGradient>
    
    <!-- Liquid gradient -->
    <radialGradient id="liquidGradient" cx="50%" cy="30%" r="70%">
      <stop offset="0%" style="stop-color:#06b6d4;stop-opacity:0.8" />
      <stop offset="40%" style="stop-color:#0891b2;stop-opacity:0.6" />
      <stop offset="100%" style="stop-color:#164e63;stop-opacity:0.9" />
    </radialGradient>
    
    <!-- Blur effect -->
    <filter id="blur" x="-50%" y="-50%" width="200%" height="200%">
      <feGaussianBlur in="SourceGraphic" stdDeviation="1"/>
    </filter>
    
    <!-- Glass reflection -->
    <filter id="reflection" x="-20%" y="-20%" width="140%" height="140%">
      <feDropShadow dx="0" dy="2" stdDeviation="4" flood-color="#ffffff" flood-opacity="0.3"/>
    </filter>
    
    <!-- Inner glow -->
    <filter id="glow" x="-50%" y="-50%" width="200%" height="200%">
      <feGaussianBlur stdDeviation="3" result="coloredBlur"/>
      <feMerge> 
        <feMergeNode in="coloredBlur"/>
        <feMergeNode in="SourceGraphic"/>
      </feMerge>
    </filter>
  </defs>
  
  <!-- Background liquid shape -->
  <path d="M15 60 Q20 20 60 15 Q100 20 105 60 Q100 100 60 105 Q20 100 15 60 Z" 
        fill="url(#liquidGradient)" 
        filter="url(#blur)"/>
  
  <!-- Glass overlay -->
  <circle cx="60" cy="60" r="50" 
          fill="url(#glassGradient)" 
          stroke="rgba(255,255,255,0.3)" 
          stroke-width="1"
          filter="url(#reflection)"/>
  
  <!-- Inner glass highlight -->
  <ellipse cx="45" cy="35" rx="20" ry="15" 
           fill="rgba(255,255,255,0.4)" 
           transform="rotate(-20 45 35)" 
           filter="url(#blur)"/>
  
  <!-- Terminal content with glass effect -->
  <g transform="translate(25, 25)" filter="url(#glow)">
    <!-- Terminal window -->
    <rect x="8" y="15" width="54" height="40" rx="6" 
          fill="rgba(255,255,255,0.2)" 
          stroke="rgba(255,255,255,0.3)" 
          stroke-width="1"/>
    
    <!-- Terminal header -->
    <rect x="8" y="15" width="54" height="12" rx="6" 
          fill="rgba(255,255,255,0.15)"/>
    
    <!-- Window controls -->
    <circle cx="15" cy="21" r="2" fill="rgba(239,68,68,0.8)"/>
    <circle cx="23" cy="21" r="2" fill="rgba(245,158,11,0.8)"/>
    <circle cx="31" cy="21" r="2" fill="rgba(16,185,129,0.8)"/>
    
    <!-- Command prompt -->
    <text x="13" y="38" font-family="Monaco, monospace" font-size="7" fill="rgba(255,255,255,0.9)">></text>
    <rect x="18" y="33" width="18" height="2" rx="1" fill="rgba(255,255,255,0.7)"/>
    
    <!-- Lightning bolt for "quick" -->
    <path d="M45 30 L40 40 L45 40 L42 50 L50 38 L45 38 L48 30 Z" 
          fill="rgba(255,255,255,0.9)" 
          filter="url(#glow)"/>
  </g>
  
  <!-- Glass shine effect -->
  <path d="M25 25 Q35 20 45 35 Q35 30 25 25" 
        fill="rgba(255,255,255,0.6)" 
        filter="url(#blur)"/>
</svg>