<svg width="120" height="120" viewBox="0 0 120 120" fill="none" xmlns="http://www.w3.org/2000/svg">
  <defs>
    <!-- 3D gradient -->
    <linearGradient id="gradient3d" x1="0%" y1="0%" x2="100%" y2="100%">
      <stop offset="0%" style="stop-color:#60A5FA;stop-opacity:1" />
      <stop offset="50%" style="stop-color:#3B82F6;stop-opacity:1" />
      <stop offset="100%" style="stop-color:#1D4ED8;stop-opacity:1" />
    </linearGradient>
    
    <!-- Shadow gradient -->
    <radialGradient id="shadowGradient" cx="50%" cy="80%" r="60%">
      <stop offset="0%" style="stop-color:#000000;stop-opacity:0.3" />
      <stop offset="100%" style="stop-color:#000000;stop-opacity:0" />
    </radialGradient>
    
    <!-- 3D effect filter -->
    <filter id="bevel" x="-50%" y="-50%" width="200%" height="200%">
      <feGaussianBlur in="SourceAlpha" stdDeviation="3"/>
      <feOffset dx="2" dy="2" result="offset"/>
      <feFlood flood-color="#000000" flood-opacity="0.3"/>
      <feComposite in2="offset" operator="in"/>
      <feMerge>
        <feMergeNode/>
        <feMergeNode in="SourceGraphic"/>
      </feMerge>
    </filter>
  </defs>
  
  <!-- Shadow -->
  <ellipse cx="65" cy="110" rx="35" ry="8" fill="url(#shadowGradient)"/>
  
  <!-- Main cube/terminal -->
  <g filter="url(#bevel)">
    <!-- Front face -->
    <rect x="20" y="40" width="60" height="50" rx="8" fill="url(#gradient3d)"/>
    
    <!-- Top face (isometric) -->
    <path d="M20 40 L35 25 L95 25 L80 40 Z" fill="#93C5FD"/>
    
    <!-- Right face (isometric) -->
    <path d="M80 40 L95 25 L95 75 L80 90 Z" fill="#1E40AF"/>
    
    <!-- Terminal screen -->
    <rect x="25" y="45" width="50" height="35" rx="4" fill="#0F172A"/>
    
    <!-- Terminal header -->
    <rect x="25" y="45" width="50" height="8" rx="4" fill="#1E293B"/>
    <circle cx="30" cy="49" r="1.5" fill="#EF4444"/>
    <circle cx="35" cy="49" r="1.5" fill="#F59E0B"/>
    <circle cx="40" cy="49" r="1.5" fill="#10B981"/>
    
    <!-- Command line -->
    <text x="28" y="62" font-family="Monaco, monospace" font-size="6" fill="#10B981">$</text>
    <rect x="32" y="58" width="15" height="1" fill="#60A5FA"/>
    
    <!-- Quick indicator -->
    <path d="M55 60 L50 65 L55 70 L53 70 L58 65 L53 60 Z" fill="#F59E0B"/>
  </g>
</svg>